<?xml version="1.0" encoding="UTF-8" standalone="no"?>
<!-- Created with Inkscape (http://www.inkscape.org/) -->

<svg
   xmlns:osb="http://www.openswatchbook.org/uri/2009/osb"
   xmlns:dc="http://purl.org/dc/elements/1.1/"
   xmlns:cc="http://creativecommons.org/ns#"
   xmlns:rdf="http://www.w3.org/1999/02/22-rdf-syntax-ns#"
   xmlns:svg="http://www.w3.org/2000/svg"
   xmlns="http://www.w3.org/2000/svg"
   xmlns:xlink="http://www.w3.org/1999/xlink"
   xmlns:sodipodi="http://sodipodi.sourceforge.net/DTD/sodipodi-0.dtd"
   xmlns:inkscape="http://www.inkscape.org/namespaces/inkscape"
   width="297mm"
   height="140mm"
   viewBox="0 0 297 140"
   version="1.1"
   id="svg8"
   sodipodi:docname="BoliPoint1.svg"
   inkscape:version="0.92.4 5da689c313, 2019-01-14">
  <defs
     id="defs2">
    <linearGradient
       inkscape:collect="always"
       id="linearGradient2738">
      <stop
         style="stop-color:#bd6c00;stop-opacity:1;"
         offset="0"
         id="stop2734" />
      <stop
         style="stop-color:#bd6c00;stop-opacity:0;"
         offset="1"
         id="stop2736" />
    </linearGradient>
    <linearGradient
       id="linearGradient3473"
       osb:paint="solid">
      <stop
         style="stop-color:#001300;stop-opacity:1;"
         offset="0"
         id="stop3471" />
    </linearGradient>
    <linearGradient
       id="linearGradient3409"
       osb:paint="solid">
      <stop
         style="stop-color:#001300;stop-opacity:1;"
         offset="0"
         id="stop3407" />
    </linearGradient>
    <linearGradient
       id="linearGradient3401"
       osb:paint="solid">
      <stop
         style="stop-color:#001300;stop-opacity:1;"
         offset="0"
         id="stop3399" />
    </linearGradient>
    <linearGradient
       id="linearGradient3183"
       osb:paint="solid">
      <stop
         style="stop-color:#001300;stop-opacity:1;"
         offset="0"
         id="stop3181" />
    </linearGradient>
    <linearGradient
       inkscape:collect="always"
       xlink:href="#linearGradient2738"
       id="linearGradient2748"
       gradientUnits="userSpaceOnUse"
       x1="83.721725"
       y1="224.23958"
       x2="108.10119"
       y2="217.24702" />
    <linearGradient
       inkscape:collect="always"
       xlink:href="#linearGradient2738"
       id="linearGradient6532"
       gradientUnits="userSpaceOnUse"
       x1="83.721725"
       y1="224.23958"
       x2="108.10119"
       y2="217.24702"
       gradientTransform="translate(18.617155,-96.005952)" />
  </defs>
  <sodipodi:namedview
     id="base"
     pagecolor="#ffffff"
     bordercolor="#666666"
     borderopacity="1.0"
     inkscape:pageopacity="0.0"
     inkscape:pageshadow="2"
     inkscape:zoom="0.49497475"
     inkscape:cx="602.23725"
     inkscape:cy="139.53893"
     inkscape:document-units="mm"
     inkscape:current-layer="layer1"
     showgrid="false"
     inkscape:window-width="975"
     inkscape:window-height="712"
     inkscape:window-x="49"
     inkscape:window-y="28"
     inkscape:window-maximized="1"
     height="200mm" />
  <metadata
     id="metadata5">
    <rdf:RDF>
      <cc:Work
         rdf:about="">
        <dc:format>image/svg+xml</dc:format>
        <dc:type
           rdf:resource="http://purl.org/dc/dcmitype/StillImage" />
        <dc:title></dc:title>
      </cc:Work>
    </rdf:RDF>
  </metadata>
  <g
     inkscape:groupmode="layer"
     id="layer2"
     inkscape:label="Camada 2"
     transform="translate(0,-157)" />
  <g
     inkscape:label="Camada 1"
     inkscape:groupmode="layer"
     id="layer1"
     transform="translate(0,-157)">
    <flowRoot
       xml:space="preserve"
       id="flowRoot1709"
       style="font-style:normal;font-weight:normal;font-size:40px;line-height:1.25;font-family:sans-serif;letter-spacing:0px;word-spacing:0px;fill:#000000;fill-opacity:1;stroke:none"
       transform="scale(0.26458333)"><flowRegion
         id="flowRegion1711"><rect
           id="rect1713"
           width="110"
           height="69.285713"
           x="474.28571"
           y="720.37683" /></flowRegion><flowPara
         id="flowPara1715" /></flowRoot>    <g
       id="g1600"
       transform="matrix(1.551903,0,0,1.551903,-17.774728,13.528037)">
      <path
         inkscape:connector-curvature="0"
         id="path1843"
         d="m 131.16207,107.0219 0.24198,30.36472 c 0,0 0.42464,0.93847 1.71162,0.9765 1.28697,0.0381 2.51099,-0.43463 2.48938,-1.09742 -0.0216,-0.66279 0.093,-30.16262 0.093,-30.16262 0,0 -0.13014,-2.13275 -2.0422,-2.20684 -1.91208,-0.0741 -2.49377,2.12566 -2.49377,2.12566 z"
         style="opacity:1;fill:#001300;fill-opacity:1;stroke:#000000;stroke-width:0.26458332px;stroke-linecap:butt;stroke-linejoin:miter;stroke-opacity:1" />
      <circle
         r="14.980279"
         cy="123.54582"
         cx="109.68268"
         id="circle1841"
         style="opacity:1;fill:url(#linearGradient6532);fill-opacity:1;fill-rule:nonzero;stroke:#000000;stroke-width:0.22511907;stroke-opacity:1" />
      <a
         transform="translate(18.617155,-96.005952)"
         id="a2764"
         style="fill:#fffff1;fill-opacity:0.69819821">
        <path
           style="fill:#fffff1;fill-opacity:0.69819821;stroke:#000000;stroke-width:0.26458332px;stroke-linecap:butt;stroke-linejoin:miter;stroke-opacity:1"
           d="m 90.900457,240.36824 c -0.01651,2.7639 -0.58808,3.63854 -0.6365,4.92447 -0.222555,1.77763 0.177304,2.83404 1.195502,4.65257 0.790749,1.8673 1.474956,4.92977 1.47543,7.08918 4.25e-4,1.93896 -0.576478,3.90237 -1.567659,5.09496 -0.207933,0.25019 0.122476,0.48495 -0.13805,0.67755 -0.641245,0.47412 -1.750437,0.41886 -2.742684,0.45413 -0.832596,-0.0382 -1.83416,-0.0477 -2.409409,-0.46058 -0.319726,-0.22948 0.0031,-0.42478 -0.245714,-0.73456 -1.013428,-1.26153 -1.522889,-3.24225 -1.620016,-4.7697 0.08828,-2.58344 0.701797,-5.72842 1.440143,-7.61027 0.902036,-1.95441 0.980491,-2.41564 0.744261,-4.44726 -0.571166,-2.13162 -1.017698,-4.17918 -0.807955,-5.49448 0.617465,-2.62667 2.717567,-2.5852 4.042106,-1.90988 0.925174,0.47171 1.246321,1.72308 1.270517,2.53387 z"
           id="path1861"
           inkscape:connector-curvature="0"
           sodipodi:nodetypes="cccssscssccccscc" />
      </a>
      <path
         inkscape:connector-curvature="0"
         id="path1833"
         d="m 69.609131,113.42456 -0.671562,23.83151 c 0,0 16.905537,4.30409 19.679629,-6.43841 2.774089,-10.7425 -8.349134,-12.34484 -8.349134,-12.34484 0,0 4.936211,-2.48064 2.76546,-6.44744 -2.17075,-3.96681 -5.560105,-3.6202 -9.279217,-2.63394 -3.719108,0.98625 -4.145176,4.03312 -4.145176,4.03312 z"
         style="fill:#000000;fill-opacity:1;stroke:#000000;stroke-width:0.26458332px;stroke-linecap:butt;stroke-linejoin:miter;stroke-opacity:1" />
      <circle
         r="1.8893924"
         cy="120.30307"
         cx="102.63498"
         id="circle1835"
         style="opacity:1;fill:#000013;fill-opacity:1;fill-rule:nonzero;stroke:#000000;stroke-width:0.22511907;stroke-opacity:1" />
      <circle
         style="opacity:1;fill:#000e00;fill-opacity:1;fill-rule:nonzero;stroke:#000000;stroke-width:0.22511907;stroke-opacity:1"
         id="circle1837"
         cx="116.94612"
         cy="119.86087"
         r="1.8893924" />
      <circle
         r="1.8893924"
         cy="129.63927"
         cx="110.23768"
         id="circle1839"
         style="opacity:1;fill:#00000f;fill-opacity:1;fill-rule:nonzero;stroke:#000000;stroke-width:0.22511907;stroke-opacity:1" />
      <g
         style="fill:#000000;fill-opacity:1"
         transform="translate(10.874206,-14.971866)"
         id="g1851">
        <g
           style="fill:#000000;fill-opacity:1"
           transform="translate(-0.37797619,0.56696429)"
           id="g1849">
          <path
             sodipodi:nodetypes="ccccccc"
             inkscape:connector-curvature="0"
             id="path1845"
             d="m 131.97997,134.79695 0.0867,17.01148 c 0,0 0.0955,1.06113 1.44274,1.0772 1.34726,0.016 1.87569,-0.63417 1.84498,-0.94065 -0.0307,-0.30648 0.19617,-17.04166 0.19617,-17.04166 0,0 -0.12729,-1.41485 -1.80683,-1.4941 -1.67354,0.18025 -1.7633,1.40737 -1.76376,1.38773 z"
             style="fill:#000000;fill-opacity:1;stroke:#000000;stroke-width:0.26458332px;stroke-linecap:butt;stroke-linejoin:miter;stroke-opacity:1" />
          <circle
             r="1.9922909"
             cy="128.98636"
             cx="133.86766"
             id="circle1847"
             style="opacity:1;fill:#000000;fill-opacity:1;fill-rule:nonzero;stroke:#000000;stroke-width:0.22222729;stroke-opacity:1" />
        </g>
      </g>
      <path
         inkscape:connector-curvature="0"
         id="path1853"
         d="m 66.124312,142.71389 -0.133633,22.6511 c 0,0 0.334087,1.06907 1.269529,1.20271 0.935445,0.13364 2.071338,-0.73499 1.937705,-1.5368 -0.133636,-0.80181 0.46772,-10.15624 0.46772,-10.15624 0,0 8.953529,-0.80181 8.352173,-7.41673 -0.601355,-6.61492 -4.81085,-6.01357 -6.815373,-6.1472 -2.00452,-0.13363 -5.078121,1.40316 -5.078121,1.40316 z"
         style="fill:#000000;fill-opacity:1;stroke:#000000;stroke-width:0.26458332px;stroke-linecap:butt;stroke-linejoin:miter;stroke-opacity:1" />
      <path
         inkscape:connector-curvature="0"
         id="path1855"
         d="m 69.732451,145.31977 0.133635,6.28084 c 0,0 4.075862,0.20045 4.34313,-3.67496 0.267269,-3.87541 -4.476765,-2.60588 -4.476765,-2.60588 z"
         style="fill:#ffffff;fill-opacity:0.97272728;stroke:#000000;stroke-width:0.26458332px;stroke-linecap:butt;stroke-linejoin:miter;stroke-opacity:1" />
      <circle
         r="9.5950222"
         cy="156.13863"
         cx="91.499512"
         id="circle1857"
         style="opacity:1;fill:#000000;fill-opacity:1;fill-rule:nonzero;stroke:#000000;stroke-width:0.31794435;stroke-opacity:1" />
      <circle
         r="6.7947898"
         cy="156.4059"
         cx="91.365883"
         id="circle1859"
         style="opacity:1;fill:#ffffff;fill-opacity:1;fill-rule:nonzero;stroke:#000000;stroke-width:0.30574992;stroke-opacity:1" />
      <path
         sodipodi:nodetypes="ccccccsscscccc"
         inkscape:connector-curvature="0"
         id="path1863"
         d="m 128.70828,163.06013 c 0,0 1.45821,3.53049 1.9135,-0.0473 v 0 l 1.08151,-20.74378 c 0,0 0.40677,-1.36783 1.89505,-0.39926 0.66455,-0.0709 -1.20059,22.14316 -1.20059,22.14316 0,0 -0.0931,2.57762 -2.23126,2.57762 -2.13816,0 -2.87315,-1.87088 -4.14268,-4.14267 -1.26953,-2.27179 -5.47902,-14.56619 -6.01356,-15.43482 -0.53454,-0.86862 -0.66818,7.41673 -0.86863,9.02035 -0.20045,1.60362 -0.53454,9.82215 -0.53454,9.82215 0,0 0,0 -2.07133,0.26728 -1.87089,0.53453 1.87088,-22.31701 1.87088,-22.31701 3.02173,-4.01418 8.2062,14.27675 10.30165,19.25423 z"
         style="fill:#000000;fill-opacity:1;stroke:#000000;stroke-width:0.26458332px;stroke-linecap:butt;stroke-linejoin:miter;stroke-opacity:1" />
      <path
         sodipodi:nodetypes="ccccc"
         inkscape:connector-curvature="0"
         id="path1865"
         d="m 104.79904,148.10809 h 4.20532 l -0.21513,1.21208 -3.68077,-0.0364 z"
         style="fill:#ff0000;fill-opacity:1;stroke:#000000;stroke-width:0.1;stroke-linecap:butt;stroke-linejoin:miter;stroke-miterlimit:4;stroke-dasharray:none;stroke-opacity:1" />
      <path
         sodipodi:nodetypes="ccccc"
         style="fill:#ff0000;fill-opacity:1;stroke:#000000;stroke-width:0.09044649;stroke-linecap:butt;stroke-linejoin:miter;stroke-miterlimit:4;stroke-dasharray:none;stroke-opacity:1"
         d="m 105.19399,150.10699 3.55611,0.0118 0.01,1.07442 -3.58875,-0.008 z"
         id="path1867"
         inkscape:connector-curvature="0" />
      <path
         sodipodi:nodetypes="cccsssc"
         inkscape:connector-curvature="0"
         id="path1869"
         d="m 72.673314,112.17508 0.12551,2.38514 0.01623,2.5758 c 0,0 5.20436,0.24151 7.437238,-1.17084 0.921756,-0.58303 1.017641,-1.83986 0.783744,-2.8924 -0.21788,-0.98046 -0.957762,-1.89932 -1.900645,-2.17257 -2.328525,-0.67479 -6.462078,1.27487 -6.462077,1.27487 z"
         style="fill:#ffffff;fill-opacity:1;stroke:#000000;stroke-width:0.26458332px;stroke-linecap:butt;stroke-linejoin:miter;stroke-opacity:1" />
      <path
         sodipodi:nodetypes="ccssc"
         inkscape:connector-curvature="0"
         id="path1871"
         d="m 72.956794,122.1442 v 13.60714 c 0,0 12.562661,-0.76307 12.43466,-7.17915 -0.04683,-2.34727 -1.808136,-4.63417 -3.905079,-5.61877 -3.582203,-1.682 -8.529581,-0.80922 -8.529581,-0.80922 z"
         style="fill:#ffffff;fill-opacity:1;stroke:#000000;stroke-width:0.26458332px;stroke-linecap:butt;stroke-linejoin:miter;stroke-opacity:1" />
      <path
         sodipodi:nodetypes="cccccccsccsccccssccccc"
         inkscape:connector-curvature="0"
         id="path1873"
         d="m 139.95307,142.46043 v 7.55952 h -3.59077 c 0,0 -0.27167,0.0118 -0.41341,0.28348 -0.14174,0.27167 -0.23427,1.27916 0.23345,1.4128 0.46772,0.13363 3.80859,0 3.80859,0 v 10.25646 c 0,0 0.22178,2.87051 4.97185,2.87051 4.75007,0 8.22458,-1.71365 8.22458,-1.71365 0,0 0.68639,-1.35607 -0.47759,-1.9593 -0.30268,-0.0811 -0.97545,0.18784 -1.37031,0.29369 -1.99214,0.5338 -3.69181,1.87153 -6.99241,1.12377 -2.17337,-0.66146 -2.17337,-1.18118 -2.17337,-1.18118 v -9.59115 l 7.37054,0.002 c 0,0 0.70181,-0.23782 0.70181,-0.67078 0,-0.43296 0.1183,-1.15124 -0.73363,-1.16794 -0.85192,-0.0167 -7.41672,0.0167 -7.41672,0.0167 v -7.56707 c 0,0 0.0501,-0.9605 -1.1359,-0.87698 -1.18601,0.0835 -1.00671,0.9088 -1.00671,0.9088 z"
         style="fill:#000000;fill-opacity:1;stroke:#000000;stroke-width:0.26458332px;stroke-linecap:butt;stroke-linejoin:miter;stroke-opacity:1" />
    </g>
  </g>
</svg>
