<?xml version="1.0" encoding="UTF-8" standalone="no"?>
<!-- Created with Inkscape (http://www.inkscape.org/) -->

<svg
   xmlns:dc="http://purl.org/dc/elements/1.1/"
   xmlns:cc="http://creativecommons.org/ns#"
   xmlns:rdf="http://www.w3.org/1999/02/22-rdf-syntax-ns#"
   xmlns:svg="http://www.w3.org/2000/svg"
   xmlns="http://www.w3.org/2000/svg"
   xmlns:sodipodi="http://sodipodi.sourceforge.net/DTD/sodipodi-0.dtd"
   xmlns:inkscape="http://www.inkscape.org/namespaces/inkscape"
   width="150mm"
   height="150mm"
   viewBox="0 0 150 150"
   version="1.1"
   id="svg6670"
   inkscape:version="0.92.4 5da689c313, 2019-01-14"
   sodipodi:docname="LogoBoliOf.svg">
  <defs
     id="defs6664" />
  <sodipodi:namedview
     id="base"
     pagecolor="#ffffff"
     bordercolor="#666666"
     borderopacity="1.0"
     inkscape:pageopacity="0.0"
     inkscape:pageshadow="2"
     inkscape:zoom="0.35"
     inkscape:cx="217.48964"
     inkscape:cy="302.87503"
     inkscape:document-units="mm"
     inkscape:current-layer="layer1"
     showgrid="false"
     inkscape:window-width="975"
     inkscape:window-height="712"
     inkscape:window-x="49"
     inkscape:window-y="28"
     inkscape:window-maximized="1" />
  <metadata
     id="metadata6667">
    <rdf:RDF>
      <cc:Work
         rdf:about="">
        <dc:format>image/svg+xml</dc:format>
        <dc:type
           rdf:resource="http://purl.org/dc/dcmitype/StillImage" />
        <dc:title></dc:title>
      </cc:Work>
    </rdf:RDF>
  </metadata>
  <g
     inkscape:label="Camada 1"
     inkscape:groupmode="layer"
     id="layer1"
     transform="translate(0,-147)">
    <g
       id="g7632"
       transform="matrix(1.3255384,0,0,1.3255384,-55.709206,-84.706534)">
      <g
         id="g7606">
        <g
           transform="matrix(2.6151403,0,0,2.6151403,-60.550912,-147.76092)"
           id="g7572">
          <ellipse
             style="opacity:1;fill:#aa4400;fill-opacity:1;fill-rule:nonzero;stroke:#000000;stroke-width:0.27946249;stroke-opacity:1"
             id="ellipse7570"
             cx="59.441353"
             cy="152.64075"
             rx="10.345042"
             ry="10.509063" />
        </g>
        <circle
           r="4.805263"
           cy="242.21571"
           cx="83.007805"
           id="circle7574"
           style="opacity:1;fill:#000000;fill-opacity:1;fill-rule:nonzero;stroke:#000000;stroke-width:0.69192249;stroke-opacity:1" />
        <circle
           style="opacity:1;fill:#000000;fill-opacity:1;fill-rule:nonzero;stroke:#000000;stroke-width:0.69192249;stroke-opacity:1"
           id="circle7576"
           cx="83.007805"
           cy="258.96051"
           r="4.805263" />
        <path
           sodipodi:nodetypes="cccccccscccccsscccc"
           inkscape:connector-curvature="0"
           id="path7578"
           d="m 115.32673,184.49153 c 3.45619,5.55923 1.9941,10.87061 1.9941,10.87061 0,0 -0.27163,1.30195 -0.75443,3.26037 -1.27813,4.32448 -1.28563,7.57868 -1.12397,12.53215 0,0 0.23071,2.20255 2.33488,5.71466 5.22459,8.34248 6.72003,17.92132 6.88138,25.92909 0.0292,5.22633 -1.33645,14.93642 -2.35603,17.78368 -1.7892,9.83371 -2.36897,7.86697 -2.47187,10.84402 -0.13523,3.91254 5.27841,8.12305 -3.86762,7.49209 -4.00874,0.0868 -9.76703,0.005 -16.635172,0.19797 -6.609501,0.15351 -1.562565,-5.35131 -2.487922,-7.68901 -0.637367,-2.52568 -3.311267,-10.45831 -3.867795,-12.78652 -2.535737,-14.54408 -2.277191,-22.99979 2.652633,-35.8524 0.755245,-2.00429 5.949516,-9.46691 5.334356,-13.45385 -0.61516,-3.98691 -1.704219,-5.66034 -3.199645,-12.34922 -1.424577,-6.37197 0.233139,-10.05558 2.421995,-13.23956 2.04137,-2.36424 4.27628,-3.47299 6.68657,-3.75317 3.91816,-0.26356 5.95181,0.96274 8.45852,4.49922 z"
           style="fill:#ffffff;fill-opacity:1;stroke:#000000;stroke-width:0.69192249px;stroke-linecap:butt;stroke-linejoin:miter;stroke-opacity:1" />
        <path
           sodipodi:nodetypes="ccscccscc"
           inkscape:connector-curvature="0"
           id="path7580"
           d="m 99.459306,203.08682 c 2.642854,0.0834 5.187374,0.55734 8.040884,0.46756 2.21614,-0.15429 2.86867,-0.15638 4.54508,-0.40678 2.20206,-0.32894 2.10934,-0.34863 3.65046,-0.97302 l -0.40254,4.44064 c 0,0 -4.39819,1.18955 -8.37797,1.37533 -2.95918,0.18724 -6.24223,-0.44191 -6.24223,-0.44191 -0.2094,-1.15728 -0.62305,-2.31858 -1.213686,-4.46179 z"
           style="fill:#ff0000;stroke:#000000;stroke-width:0.69192249px;stroke-linecap:butt;stroke-linejoin:miter;stroke-opacity:1" />
        <path
           sodipodi:nodetypes="ccccsscc"
           inkscape:connector-curvature="0"
           id="path7582"
           d="m 100.94392,208.93597 c 0,0 3.7043,0.70361 7.20443,0.31259 3.50015,-0.39112 7.17958,-1.1294 7.17958,-1.1294 l 0.28905,3.71931 c 0,0 -3.73851,1.1505 -7.62778,1.23073 -1.39963,0.0288 -3.27126,0.0397 -4.38084,-0.16684 -1.97373,-0.36761 -2.81981,-0.77029 -2.81981,-0.77029 z"
           style="fill:#ff0000;stroke:#000000;stroke-width:0.69192249px;stroke-linecap:butt;stroke-linejoin:miter;stroke-opacity:1" />
      </g>
    </g>
  </g>
  <g
     inkscape:groupmode="layer"
     id="layer4"
     inkscape:label="Camada 3"
     transform="translate(0,-147)" />
  <g
     inkscape:groupmode="layer"
     id="layer5"
     inkscape:label="Camada 4"
     transform="translate(0,-147)" />
  <g
     inkscape:groupmode="layer"
     id="layer3"
     inkscape:label="Camada 2"
     transform="translate(0,-147)" />
</svg>
